<?xml version="1.0" encoding="utf-8"?>
<!-- Generator: Adobe Illustrator 17.1.0, SVG Export Plug-In . SVG Version: 6.00 Build 0)  -->
<!DOCTYPE svg PUBLIC "-//W3C//DTD SVG 1.1//EN" "http://www.w3.org/Graphics/SVG/1.1/DTD/svg11.dtd">
<svg version="1.1" id="Layer_1" xmlns="http://www.w3.org/2000/svg" xmlns:xlink="http://www.w3.org/1999/xlink" x="0px" y="0px"
	 viewBox="0 0 841.9 595.3" enable-background="new 0 0 841.9 595.3" xml:space="preserve">
<g>
	<g>
		<path fill="#FFFFFF" d="M250.7,219.6c-10.2,0-14.3,5.4-14.3,15.4v165h-56.7L76.9,253v106.2c0,10.4,4.3,15.8,14.3,15.8h19.5v25.2
			H13.5V375h16.7c10.2,0,14.3-5.4,14.3-15.8V236.7c0-10.4-4.3-17.2-14.3-17.2H13.5v-25h89.2l100.9,145.7V235.2
			c0-10.2-3.9-15.4-14.1-15.4h-19.8v-25.2h97.9v25.2h-16.9V219.6z"/>
		<path fill="#FFFFFF" d="M311.7,331.6c0,0,0,6.1,0.2,9.8c1.3,20.8,12.8,36.3,35.4,36.3c23,0,34.3-14.3,35-31.9h33.4
			c-1.7,31.7-25.4,57.7-74.9,57.7c-46.9,0-83.1-28.7-83.1-77.5c0-44.3,34.5-78.2,82.5-78.2c46.9,0,75.1,31,76,71.4
			c0,5.4,0.2,8.5,0.2,12.4L311.7,331.6L311.7,331.6z M366.5,304.9c-0.7-16.5-7.4-31.5-26.3-31.5c-18,0-26.3,13.5-27.6,31
			c0,1.7-0.2,5-0.2,5h54.1C366.5,309.7,366.5,306.6,366.5,304.9z"/>
		<path fill="#FFFFFF" d="M678.9,278c-8,0-11.3,5.6-15,15l-40.2,107h-48.4l-26.7-70.6L523.8,400h-50.4l-39.7-110.7
			c-3-8.7-6.1-11.3-11.7-11.3h-6.9v-23.2h86.4v23l-7.8,0.2c-7.8,0.2-9.8,3.3-7.4,10.4l26.3,76l22.8-68.2c0.7-1.5-0.2-8.7-0.2-10.4
			c-1.5-5-5.4-8-10.2-8h-7.4v-23h84.9v22.8l-8.9,0.2c-7.4,0.2-9.6,3.3-7.2,10.4l26.3,76.2l25.2-73.6c0.9-2.4,1.5-6.1,1.5-8
			c0-3-3-5-6.9-5h-11.3v-23h62.5v23.4h-4.8V278z"/>
		<path fill="#FFFFFF" d="M763.7,402.8c-22.4,0-37.8-6.5-44.5-10.4c-5-1.5-8.7,3.3-9.6,7.8h-21.3v-56h24.3c0,0,0.2,5,0.9,6.9
			c1.5,16.7,18.2,27.6,39.5,27.6c17.4,0,26.1-6.3,26.1-15.2c0-7.8-4.6-13.2-22.8-17.2l-25.8-5.6c-29.3-6.5-42.6-20.4-42.6-43.4
			c0-29.3,24.5-49.7,61.7-49.7c22.8,0,35.6,7.8,40.6,9.8c3.3,0.9,6.3-1.5,7.2-6.9h19.8v51.5h-23.7c0,0-0.7-4.6-0.9-6.3
			c-1.5-13.5-14.3-23.4-33.2-23.4c-17.6,0-26.7,5-26.7,14.1c0,7.4,4.1,11.1,19.5,14.3l35.8,7.8c27.6,6.1,40.2,20.6,40.2,43.4
			C828.4,384.6,802.4,402.8,763.7,402.8z"/>
	</g>
	<g>
		<path fill="#FFFFFF" d="M312,223.3l1.5-7.6c1.5,0.4,12.4,2.2,20,2.2c11.1,0,12.2-0.4,12.2-2.8c0-2.4-1.5-2.4-12.4-2.6
			c-15.8-0.2-21.5-1.3-21.5-10.2s5.4-10.2,21.9-10.2c9.1,0,19.1,1.5,21.5,2.2l-1.7,7.4c-3.9-0.7-13.2-2-19.8-2
			c-9.6,0-11.1,0.2-11.1,2.4c0,2.2,1.1,2.4,11.7,2.6c17.8,0.2,22.1,1.7,22.1,10.4s-4.3,10.2-23.2,10.2
			C322.6,225.5,314.6,224.2,312,223.3z"/>
		<path fill="#FFFFFF" d="M365.2,192.9h10.4v11.7h24.1v-11.7h10.4v31.9h-10.4v-12.4h-24.1v12.4h-10.4V192.9z"/>
		<path fill="#FFFFFF" d="M419.4,192.9h39.3v8h-28.4v4.1h17.2v7.4h-17.2v4.8h28.4v7.6h-39.3V192.9z"/>
		<path fill="#FFFFFF" d="M466.3,192.9h28c8.7,0,14.8,2,14.8,12.2c0,9.8-6.3,12.2-15,12.2c-3,0-15.6,0-17.4,0v7.6h-10.6v-31.9H466.3
			z M493.7,209.8c3.9,0,5-1.1,5-4.6s-1.1-4.6-5-4.6c-3,0-16.5,0-16.5,0v8.9C478.9,209.8,491.3,209.8,493.7,209.8z"/>
		<path fill="#FFFFFF" d="M516,192.9h28c8.7,0,14.8,2,14.8,12.2c0,9.8-6.3,12.2-15,12.2c-3,0-15.6,0-17.4,0v7.6h-10.6v-31.9H516z
			 M543.4,209.8c3.9,0,5-1.1,5-4.6s-1.1-4.6-5-4.6c-3,0-16.5,0-16.5,0v8.9C528.6,209.8,541,209.8,543.4,209.8z"/>
		<path fill="#FFFFFF" d="M566.8,224.8h-11.1l20-32.1h12.6l20,32.1h-11.9l-3-4.8h-23.9L566.8,224.8z M581.8,200.7l-7.2,11.7H589
			L581.8,200.7z"/>
		<path fill="#FFFFFF" d="M660.2,224.8h-13l-11.3-9.3c-4.3,0-11.3,0-11.7,0v9.3h-10.4v-31.9h28c8.7,0,14.8,2.2,14.8,11.3
			c0,5.6-3.7,8.7-9.6,9.8L660.2,224.8z M641.1,208.5c3.9,0,5-0.7,5-3.9c0-3.3-1.1-3.9-5-3.9c-3,0-16.7,0-16.7,0v7.6
			C626.3,208.5,640,208.5,641.1,208.5z"/>
		<path fill="#FFFFFF" d="M680.6,200.9h-18v-8h46.7v8h-18v23.9h-10.6L680.6,200.9L680.6,200.9z"/>
		<path fill="#FFFFFF" d="M712.9,208.7c0-14.1,8-16.9,26.3-16.9c18.2,0,26.3,2.8,26.3,16.9c0,14.1-8.2,16.7-26.5,16.7
			S712.9,222.9,712.9,208.7z M754,208.7c0-8.2-3.5-8.7-15-8.7c-11.3,0-14.5,0.4-14.5,8.7s3.3,8.9,14.8,8.9S754,217.2,754,208.7z"/>
		<path fill="#FFFFFF" d="M772.6,192.9h11.1l23.9,18.9v-18.9h10.2v31.9h-9.3l-25.4-20.2v20.2h-10.2v-31.9H772.6z"/>
	</g>
</g>
</svg>
