<?xml version="1.0" encoding="utf-8"?>
<!-- Generator: Adobe Illustrator 17.1.0, SVG Export Plug-In . SVG Version: 6.00 Build 0)  -->
<!DOCTYPE svg PUBLIC "-//W3C//DTD SVG 1.1//EN" "http://www.w3.org/Graphics/SVG/1.1/DTD/svg11.dtd">
<svg version="1.1" id="Layer_1" xmlns="http://www.w3.org/2000/svg" xmlns:xlink="http://www.w3.org/1999/xlink" x="0px" y="0px"
	 viewBox="0 0 387.8 206.5" enable-background="new 0 0 387.8 206.5" xml:space="preserve">
<g>
	<g>
		<path fill="#ED3A4B" d="M115.5,67.3c-4.7,0-6.6,2.5-6.6,7.1v76H82.8L35.4,82.7v48.9c0,4.8,2,7.3,6.6,7.3h9v11.6H6.2v-11.6h7.7
			c4.7,0,6.6-2.5,6.6-7.3V75.2c0-4.8-2-7.9-6.6-7.9H6.2V55.8h41.1l46.5,67.1V74.5c0-4.7-1.8-7.1-6.5-7.1h-9.1V55.8h45.1v11.6H115.5z
			"/>
		<path fill="#ED3A4B" d="M143.6,118.9c0,0,0,2.8,0.1,4.5c0.6,9.6,5.9,16.7,16.3,16.7c10.6,0,15.8-6.6,16.1-14.7h15.4
			c-0.8,14.6-11.7,26.6-34.5,26.6c-21.6,0-38.3-13.2-38.3-35.7c0-20.4,15.9-36,38-36c21.6,0,34.6,14.3,35,32.9
			c0,2.5,0.1,3.9,0.1,5.7H143.6z M168.8,106.6c-0.3-7.6-3.4-14.5-12.1-14.5c-8.3,0-12.1,6.2-12.7,14.3c0,0.8-0.1,2.3-0.1,2.3h24.9
			C168.8,108.8,168.8,107.4,168.8,106.6z"/>
		<path fill="#ED3A4B" d="M312.7,94.2c-3.7,0-5.2,2.6-6.9,6.9l-18.5,49.3H265l-12.3-32.5l-11.4,32.5h-23.2l-18.3-51
			c-1.4-4-2.8-5.2-5.4-5.2h-3.2V83.5h39.8v10.6l-3.6,0.1c-3.6,0.1-4.5,1.5-3.4,4.8l12.1,35l10.5-31.4c0.3-0.7-0.1-4-0.1-4.8
			c-0.7-2.3-2.5-3.7-4.7-3.7h-3.4V83.5h39.1v10.5l-4.1,0.1c-3.4,0.1-4.4,1.5-3.3,4.8l12.1,35.1l11.6-33.9c0.4-1.1,0.7-2.8,0.7-3.7
			c0-1.4-1.4-2.3-3.2-2.3h-5.2V83.5h28.8v10.8H312.7z"/>
		<path fill="#ED3A4B" d="M351.8,151.7c-10.3,0-17.4-3-20.5-4.8c-2.3-0.7-4,1.5-4.4,3.6h-9.8v-25.8h11.2c0,0,0.1,2.3,0.4,3.2
			c0.7,7.7,8.4,12.7,18.2,12.7c8,0,12-2.9,12-7c0-3.6-2.1-6.1-10.5-7.9l-11.9-2.6c-13.5-3-19.6-9.4-19.6-20
			c0-13.5,11.3-22.9,28.4-22.9c10.5,0,16.4,3.6,18.7,4.5c1.5,0.4,2.9-0.7,3.3-3.2h9.1v23.7h-10.9c0,0-0.3-2.1-0.4-2.9
			c-0.7-6.2-6.6-10.8-15.3-10.8c-8.1,0-12.3,2.3-12.3,6.5c0,3.4,1.9,5.1,9,6.6l16.5,3.6c12.7,2.8,18.5,9.5,18.5,20
			C381.6,143.3,369.6,151.7,351.8,151.7z"/>
	</g>
	<g>
		<path fill="#ED3A4B" d="M143.7,69l0.7-3.5c0.7,0.2,5.7,1,9.2,1c5.1,0,5.6-0.2,5.6-1.3c0-1.1-0.7-1.1-5.7-1.2
			c-7.3-0.1-9.9-0.6-9.9-4.7c0-4.1,2.5-4.7,10.1-4.7c4.2,0,8.8,0.7,9.9,1l-0.8,3.4c-1.8-0.3-6.1-0.9-9.1-0.9c-4.4,0-5.1,0.1-5.1,1.1
			c0,1,0.5,1.1,5.4,1.2c8.2,0.1,10.2,0.8,10.2,4.8c0,4-2,4.7-10.7,4.7C148.6,70,144.9,69.4,143.7,69z"/>
		<path fill="#ED3A4B" d="M168.2,55h4.8v5.4h11.1V55h4.8v14.7h-4.8V64H173v5.7h-4.8V55z"/>
		<path fill="#ED3A4B" d="M193.2,55h18.1v3.7h-13.1v1.9h7.9V64h-7.9v2.2h13.1v3.5h-18.1V55z"/>
		<path fill="#ED3A4B" d="M214.8,55h12.9c4,0,6.8,0.9,6.8,5.6c0,4.5-2.9,5.6-6.9,5.6c-1.4,0-7.2,0-8,0v3.5h-4.9V55z M227.4,62.8
			c1.8,0,2.3-0.5,2.3-2.1c0-1.6-0.5-2.1-2.3-2.1c-1.4,0-7.6,0-7.6,0v4.1C220.6,62.8,226.3,62.8,227.4,62.8z"/>
		<path fill="#ED3A4B" d="M237.7,55h12.9c4,0,6.8,0.9,6.8,5.6c0,4.5-2.9,5.6-6.9,5.6c-1.4,0-7.2,0-8,0v3.5h-4.9V55z M250.3,62.8
			c1.8,0,2.3-0.5,2.3-2.1c0-1.6-0.5-2.1-2.3-2.1c-1.4,0-7.6,0-7.6,0v4.1C243.5,62.8,249.2,62.8,250.3,62.8z"/>
		<path fill="#ED3A4B" d="M261.1,69.7h-5.1l9.2-14.8h5.8l9.2,14.8h-5.5l-1.4-2.2h-11L261.1,69.7z M268,58.6l-3.3,5.4h6.6L268,58.6z"
			/>
		<path fill="#ED3A4B" d="M304.1,69.7h-6l-5.2-4.3c-2,0-5.2,0-5.4,0v4.3h-4.8V55h12.9c4,0,6.8,1,6.8,5.2c0,2.6-1.7,4-4.4,4.5
			L304.1,69.7z M295.3,62.2c1.8,0,2.3-0.3,2.3-1.8c0-1.5-0.5-1.8-2.3-1.8c-1.4,0-7.7,0-7.7,0v3.5C288.5,62.2,294.8,62.2,295.3,62.2z
			"/>
		<path fill="#ED3A4B" d="M313.5,58.7h-8.3V55h21.5v3.7h-8.3v11h-4.9V58.7z"/>
		<path fill="#ED3A4B" d="M328.4,62.3c0-6.5,3.7-7.8,12.1-7.8c8.4,0,12.1,1.3,12.1,7.8c0,6.5-3.8,7.7-12.2,7.7
			C332,70,328.4,68.8,328.4,62.3z M347.3,62.3c0-3.8-1.6-4-6.9-4c-5.2,0-6.7,0.2-6.7,4c0,3.8,1.5,4.1,6.8,4.1
			C345.8,66.4,347.3,66.2,347.3,62.3z"/>
		<path fill="#ED3A4B" d="M355.9,55h5.1l11,8.7V55h4.7v14.7h-4.3l-11.7-9.3v9.3h-4.7V55z"/>
	</g>
</g>
</svg>
