<svg width="120" height="37" viewBox="0 0 120 37" xmlns="http://www.w3.org/2000/svg" xmlns:xlink="http://www.w3.org/1999/xlink"><title>OVO Logo</title><defs><path id="a" d="M0 .01V36.4h36.347V.01H0z"/></defs><g fill="none" fill-rule="evenodd"><path d="M73.836 1.715l-.784-.767-3.05 6.099-9.876 19.775c-.089.181-.164.364-.247.548-.056-.123-.166-.246-.166-.369v-.015l-9.901-19.81-3.053-6.128-.789.777a19.788 19.788 0 0 0-3.695 5.038l-.186.36 14.14 28.314.4.068a19.99 19.99 0 0 0 3.33.283 20.33 20.33 0 0 0 3.14-.25l.408-.063 3.504-7.018 7.232-14.487 3.505-7.012-.193-.363a20.073 20.073 0 0 0-3.719-4.98m27.824 28.441c-6.465 0-11.725-5.265-11.725-11.738 0-6.472 5.26-11.738 11.724-11.738 6.465 0 11.724 5.266 11.724 11.738 0 6.473-5.26 11.738-11.724 11.738m0-29.933c-10.02 0-18.173 8.163-18.173 18.195 0 10.033 8.152 18.195 18.173 18.195 10.021 0 18.173-8.162 18.173-18.195 0-10.032-8.152-18.195-18.173-18.195" fill="#FFF"/><g transform="translate(0 .213)"><mask id="b" fill="#fff"><use xlink:href="#a"/></mask><path d="M18.173 29.943c-6.464 0-11.724-5.265-11.724-11.738 0-6.472 5.26-11.738 11.724-11.738 6.465 0 11.724 5.266 11.724 11.738 0 6.473-5.26 11.738-11.724 11.738m0-29.933C8.153.01 0 8.173 0 18.205 0 28.238 8.152 36.4 18.173 36.4c10.021 0 18.174-8.162 18.174-18.195C36.347 8.173 28.194.01 18.173.01" fill="#FFF" mask="url(#b)"/></g></g></svg>